# xmcd CD database file
#
# Track frame offsets:
#	150
#	13488
#	25207
#	39800
#	53048
#	63962
#	83733
#	97863
#	109760
#	125165
#	139598
#	153552
#	166121
#	180722
#	195112
#	202926
#	215887
#	226144
#	240386
#	254526
#	265104
#	281844
#	295126
#	307360
#	324760
#	339717
#
# Disc length: 4608 seconds
#
# Submitted via: cddb-tool 0.4.7
#
#blues,classical,country,data,folk,jazz,newage,reggae,rock,soundtrack,misc
# Revision: 0
# Processed by: cddbd v1.5.2PL0 Copyright (c) Steve Scherf et al.
#
DISCID=6f11fe1a
DTITLE=Various Artist - 150 minutes of country hits
DYEAR=2014
DGENRE=Country
TTITLE0=Kenny Rogers - Ruby don't take your love to town
TTITLE1=Patsy Cline - Walkin' after midnight
TTITLE2=WIllie Nelson - What can you do to me now
TTITLE3=Lynn Anderson - Rose garden
TTITLE4=Tammy Wynette - Stand by your man
TTITLE5=The Bellamy Brothers - If I said you had a beautiful body (live)
TTITLE6=George Jones - A good year for the roses
TTITLE7=Lee Greenwood - God bless the USA (live)
TTITLE8=Billie Jo Spears - Blanket on the ground
TTITLE9=Reba McIntyre - Daddy
TTITLE10=Johnny Cash - Don't take your guns to town
TTITLE11=Dolly Parton - Little blossom
TTITLE12=Don Williams - My woman's love
TTITLE13=T Graham Brown - Darlene
TTITLE14=Glen Campbell - Lonesome Jailhouse Blues
TTITLE15=Charlie Rich - Behind closed doors (live)
TTITLE16=Bill Monroe and His Bluegrass Boys - Blue moon of Kentucky
TTITLE17=Sweethearts Of The Rodeo - Chains of gold (live)
TTITLE18=Frankie Laine - Don't fence me in
TTITLE19=Conway Twitty - It's only make believe
TTITLE20=Atlanta - Sweet country music (live)
TTITLE21=Mel McDaniel - Baby's got her blue jeans (live)
TTITLE22=Mickey Gilley - Don't the girls all get prettier at closing time
TTITLE23=Ferlin Huskey - Convoy
TTITLE24=Tina Turner - Good hearted woman
TTITLE25=Jim Reeves - Have I told you lately that I love you
EXTD=
EXTT0=
EXTT1=
EXTT2=
EXTT3=
EXTT4=
EXTT5=
EXTT6=
EXTT7=
EXTT8=
EXTT9=
EXTT10=
EXTT11=
EXTT12=
EXTT13=
EXTT14=
EXTT15=
EXTT16=
EXTT17=
EXTT18=
EXTT19=
EXTT20=
EXTT21=
EXTT22=
EXTT23=
EXTT24=
EXTT25=
PLAYORDER=
